<?xml version="1.0" encoding="UTF-8"?>
<svg width="600" viewBox="0 0 227 95" version="1.1" xmlns="http://www.w3.org/2000/svg" xmlns:xlink="http://www.w3.org/1999/xlink">
  <g transform="translate(-1.000000, -1.000000)" fill="#000000">
    <g transform="translate(1.000000, 2.000000)">
      <path d="M199.34,67.02 C199.34,60.24 206.12,47.4 211.7,47.4 C214.76,47.4 220.28,50.4 220.28,52.98 C220.28,55.98 216.44,65.58 212.54,65.58 C209.84,65.58 206.9,64.74 206.9,64.74 C206.9,64.74 206.42,65.76 206.42,67.68 C206.42,69.12 209,71.34 211.58,71.34 C214.82,71.34 219.56,69.12 223.46,61.44 C223.46,61.44 223.94,60.36 224.72,60.36 C225.5,60.36 226.76,61.32 226.76,62.04 C226.76,62.76 226.04,64.14 226.04,64.14 C221.96,71.88 216.74,75.6 211.88,75.6 C206.6,75.6 199.34,71.7 199.34,67.02 Z M31.3476346,61.8558306 C32.6484581,56.6816075 34.2957464,50.7908072 34.88,48.66 C35.12,47.82 35.96,47.4 36.86,47.4 C37.58,47.4 41.66,49.56 41.66,50.7 C41.66,52.08 36.8,65.58 36.8,69.78 C36.8,70.56 37.76,71.46 38.36,71.46 C39.4552277,71.46 41.1447497,69.6295734 43.0096039,66.9263481 C42.8338692,66.4083937 42.74,65.914082 42.74,65.46 C42.74,62.52 47.72,60.18 47.72,60.18 C47.72,60.18 53.48,51.36 55.52,48 C55.88,47.34 56.6,46.62 57.44,46.62 C58.22,46.62 61.82,48.96 61.82,50.04 C61.82,55.86 64.1,61.08 64.1,65.58 C64.1,67.86 62.24,70.44 62.24,70.44 C64.7095294,69.2913817 67.3989462,67.0433266 70.2030142,62.1172934 C71.9035297,54.8370621 76.7606219,47.4 82.16,47.4 C86.12,47.4 90.44,50.4 90.44,52.8 C90.44,54.48 88.52,59.52 87.32,59.52 C85.82,59.52 83.54,58.02 83.54,57 C83.54,55.74 85.34,53.52 85.34,52.38 C85.34,51.96 84.62,51.48 83.96,51.48 C80.78,51.48 77,60.6 77,67.2 C77,69.36 79.58,71.34 81.56,71.34 C84.6655757,71.34 89.716781,68.0209848 93.695819,61.8859205 C95.9772882,52.7707027 99.2472345,40.6136596 100.34,37.26 C100.58,36.36 101.12,36 101.6,36 C102.74,36 106.76,38.16 106.76,39.18 C106.76,39.6 106.58,40.2 106.46,40.68 C105.02,45.72 103.34,51.42 103.34,51.42 C103.34,51.42 108.32,47.4 111.92,47.4 C113.66,47.4 116.96,49.86 116.96,52.08 C116.96,54.9 113.24,66.6 113.24,69.78 C113.24,70.56 114.26,71.46 114.8,71.46 C116.473223,71.46 119.589005,67.1878047 122.440027,62.058054 C124.683795,54.9495516 129.760149,47.4 133.88,47.4 C138.68,47.4 141.74,51 141.74,51 C143.3,51 146.9,51.42 146.9,52.92 C146.9,55.02 142.82,64.98 142.82,69.78 C142.82,70.56 143.9,71.46 144.44,71.46 C146.200466,71.46 149.338371,67.0407148 152.225865,61.7946406 C152.338302,61.5800545 152.419998,61.4400032 152.42,61.44 C152.42,61.44 152.42519,61.4296191 152.435289,61.4108927 C154.541063,57.6070567 156.74,52.08 156.74,52.08 C156.74,52.08 154.22,50.52 154.22,48.48 C154.22,46.44 156.74,41.76 158.24,41.76 C159.98,41.76 163.04,43.68 163.04,45.06 C163.04,46.32 162.14,47.82 162.14,49.38 C162.14,50.88 169.76,51.48 169.76,54 C169.76,55.98 166.28,66.96 166.28,70.38 C166.28,71.04 166.82,71.46 167.36,71.46 C169.063279,71.46 172.055962,67.3231622 174.863738,62.3031378 C177.066899,55.124209 182.212766,47.4 186.38,47.4 C191.18,47.4 194.24,51 194.24,51 C195.8,51 199.4,51.42 199.4,52.92 C199.4,54.06 197.12,63.06 194.54,72.06 C192.2,80.22 189.68,88.38 188.3,90.78 C187.22,92.7 184.22,93.84 182.36,93.84 C180.26,93.84 171.44,84 169.52,84 C167.3,84 144.02,92.04 137.72,92.04 C135.08,92.04 129.08,84.66 129.08,84.18 C129.08,83.7 129.86,82.8 130.4,82.8 C131.12,82.8 133.7,84.72 136.52,84.72 C141.5,84.72 169.1,79.02 172.46,79.02 C173.18,79.02 174.14,79.56 174.44,79.98 C176.72,83.28 180.44,88.5 180.92,88.5 C181.82,88.5 182.3,88.14 182.9,86.88 C184.22,84.12 187.94,71.64 187.94,71.64 C187.94,71.64 184.58,75.6 181.52,75.6 C179.230569,75.6 175.413607,72.9990694 174.178605,70.2629023 C171.927777,73.4021133 169.50088,75.6 166.76,75.6 C164.06,75.6 159.26,73.32 159.26,70.98 C159.26,66.3 162.44,57.72 162.44,54.96 C162.44,54.3 160.04,53.82 160.04,53.82 C160.04,53.82 157.959792,58.6936299 155.041605,64.0635108 C155.008001,64.1258448 155,64.14 155,64.14 C151.7,70.14 148.16,75.6 143.84,75.6 C141.14,75.6 136.16,73.32 135.68,71.64 C135.68,71.64 132.08,75.6 129.02,75.6 C126.719802,75.6 122.877672,72.9745481 121.661353,70.2242899 C119.415394,73.3840757 116.990328,75.6 114.2,75.6 C111.5,75.6 106.46,73.08 106.46,70.38 C106.46,66.54 109.46,56.94 109.46,54.66 C109.46,53.64 108.44,52.62 107.66,52.62 C106.22,52.62 102.74,54.84 101.96,57.42 C100.34,62.52 97.94,72.36 97.58,74.22 C97.34,75 97.16,75.6 96.32,75.6 C94.88,75.6 91.34,74.04 91.34,72.42 C91.34,72.1160101 91.4837962,71.3069507 91.7357643,70.1261206 C88.1935548,73.5527686 84.1990284,75.6 80.42,75.6 C76.0623913,75.6 71.0156857,72.522034 69.8222935,68.8985961 C66.3904912,72.7466246 61.5461736,75.6 55.04,75.6 C51.308902,75.6 47.4617949,73.1174052 45.0857636,70.3452784 C42.848915,73.4404958 40.4168424,75.6 37.7,75.6 C35.2456348,75.6 30.5601924,73.5176613 29.727982,71.1106731 C27.6551186,73.7907254 25.4267932,75.6 22.94,75.6 C20.24,75.6 16.1,72.84 15.26,71.58 C15.26,71.58 10.88,75.6 8.24,75.6 C4.58,75.6 0.44,71.46 0.44,68.94 C0.44,61.02 7.1,47.4 13.4,47.4 C16.7,47.4 19.64,49.86 19.64,49.86 C19.64,49.86 23.78,35.1 24.56,32.76 C25.52,29.82 33.5,24.9 36.68,24.9 C39.86,24.9 63.5,26.82 67.04,26.82 C69.86,26.82 72.44,24.9 73.16,24.9 C73.7,24.9 74.48,25.8 74.48,26.28 C74.48,26.76 68.48,33.84 65.84,33.84 C61.28,33.84 40.76,28.8 38.24,28.8 C36.32,28.8 31.7,31.08 31.1,33.24 C30.2,36.48 21.92,65.88 21.92,69.78 C21.92,70.56 23,71.46 23.54,71.46 C25.2936169,71.46 28.413977,67.0750322 31.3476352,61.8558284 Z M41.9,44.7 C40.4,44.7 37.76,43.68 37.76,42.18 C37.76,39.9 39.14,36 41.12,36 C42.62,36 45.26,37.02 45.26,38.52 C45.26,40.8 43.82,44.7 41.9,44.7 Z M55.7,55.02 C55.7,55.02 49.94,63.24 49.94,65.22 C49.94,68.22 51.86,71.34 53.48,71.34 C55.52,71.34 57.08,69.24 57.08,67.08 C57.08,62.76 55.7,58.26 55.7,55.02 Z M18.5,53.88 C18.5,53.88 16.64,52.2 15.2,52.2 C11.9,52.2 7.4,64.26 7.4,67.98 C7.4,69.84 8.36,70.98 9.62,70.98 C11.48,70.98 14.66,67.02 15.38,64.98 C16.76,61.08 17.6,57.9 18.5,53.88 Z M139.34,53.94 C139.34,52.98 137.06,52.2 136.1,52.2 C133.1,52.2 128.3,63.3 128.3,68.58 C128.3,69.96 129.38,70.98 130.4,70.98 C131.6,70.98 134.6,68.88 136.28,65.4 C137.48,62.88 139.34,55.62 139.34,53.94 Z M188.6,52.2 C185.6,52.2 180.8,63.3 180.8,68.58 C180.8,69.96 181.88,70.98 182.9,70.98 C184.1,70.98 187.1,68.88 188.78,65.4 C189.98,62.88 191.84,55.62 191.84,53.94 C191.84,52.98 189.56,52.2 188.6,52.2 Z M207.32,62.04 C213.08,62.04 215.54,55.2 215.54,53.58 C215.54,52.74 214.58,52.08 213.74,52.08 C211.4,52.08 207.86,59.22 207.32,62.04 Z" id="Logo"></path>
      <path d="M131.486372,9.2209907 C131.486372,9.0129907 131.408372,8.9089907 131.148372,8.9089907 C130.966372,8.9089907 127.716372,10.0009907 127.352372,10.1309907 C127.170372,10.1829907 127.040372,10.3389907 126.988372,10.5469907 C126.858372,11.0929907 124.466372,21.2069907 124.466372,21.3889907 C124.466372,21.5449907 124.544372,21.6489907 124.674372,21.6489907 C124.882372,21.6489907 126.728372,20.6869907 126.936372,20.6869907 C127.092372,20.6869907 127.170372,20.7389907 127.170372,20.8689907 C127.170372,21.0769907 124.934372,28.8249907 124.882372,29.2409907 C124.830372,29.5269907 124.856372,29.7089907 125.090372,29.7089907 C125.324372,29.7089907 125.454372,29.4489907 125.532372,29.2669907 C126.182372,27.5769907 130.966372,17.4889907 130.966372,17.3069907 C130.966372,17.1769907 130.888372,17.0729907 130.758372,17.0729907 C130.498372,17.0729907 128.522372,17.8529907 128.340372,17.8529907 C128.236372,17.8529907 128.132372,17.7229907 128.132372,17.5929907 C128.132372,17.3589907 131.486372,9.5069907 131.486372,9.2209907 Z" id="Right-bolt" stroke="#000000" stroke-width="0.5" transform="translate(127.976372, 19.308991) rotate(25.000000) translate(-127.976372, -19.308991) "></path>
      <path d="M118.146699,1.05716179 C118.146699,0.769161787 118.038699,0.625161787 117.678699,0.625161787 C117.426699,0.625161787 112.926699,2.13716179 112.422699,2.31716179 C112.170699,2.38916179 111.990699,2.60516179 111.918699,2.89316179 C111.738699,3.64916179 108.426699,17.6531618 108.426699,17.9051618 C108.426699,18.1211618 108.534699,18.2651618 108.714699,18.2651618 C109.002699,18.2651618 111.558699,16.9331618 111.846699,16.9331618 C112.062699,16.9331618 112.170699,17.0051618 112.170699,17.1851618 C112.170699,17.4731618 109.074699,28.2011618 109.002699,28.7771618 C108.930699,29.1731618 108.966699,29.4251618 109.290699,29.4251618 C109.614699,29.4251618 109.794699,29.0651618 109.902699,28.8131618 C110.802699,26.4731618 117.426699,12.5051618 117.426699,12.2531618 C117.426699,12.0731618 117.318699,11.9291618 117.138699,11.9291618 C116.778699,11.9291618 114.042699,13.0091618 113.790699,13.0091618 C113.646699,13.0091618 113.502699,12.8291618 113.502699,12.6491618 C113.502699,12.3251618 118.146699,1.45316179 118.146699,1.05716179 Z" id="Middle-bolt" stroke="#000000" stroke-width="0.7" transform="translate(113.286699, 15.025162) rotate(-10.000000) translate(-113.286699, -15.025162) "></path>
      <path d="M101.733047,7.68580675 C101.733047,7.47780675 101.655047,7.37380675 101.395047,7.37380675 C101.213047,7.37380675 97.9630467,8.46580675 97.5990467,8.59580675 C97.4170467,8.64780675 97.2870467,8.80380675 97.2350467,9.01180675 C97.1050467,9.55780675 94.7130467,19.6718068 94.7130467,19.8538068 C94.7130467,20.0098068 94.7910467,20.1138068 94.9210467,20.1138068 C95.1290467,20.1138068 96.9750467,19.1518068 97.1830467,19.1518068 C97.3390467,19.1518068 97.4170467,19.2038068 97.4170467,19.3338068 C97.4170467,19.5418068 95.1810467,27.2898068 95.1290467,27.7058068 C95.0770467,27.9918068 95.1030467,28.1738068 95.3370467,28.1738068 C95.5710467,28.1738068 95.7010467,27.9138068 95.7790467,27.7318068 C96.4290467,26.0418068 101.213047,15.9538068 101.213047,15.7718068 C101.213047,15.6418068 101.135047,15.5378068 101.005047,15.5378068 C100.745047,15.5378068 98.7690467,16.3178068 98.5870467,16.3178068 C98.4830467,16.3178068 98.3790467,16.1878068 98.3790467,16.0578068 C98.3790467,15.8238068 101.733047,7.97180675 101.733047,7.68580675 Z" id="Left-bolt" stroke="#000000" stroke-width="0.5" transform="translate(98.223047, 17.773807) rotate(-50.000000) translate(-98.223047, -17.773807) "></path>
    </g>
  </g>
</svg>
